# File created by Blade
# Date/Time:  Tue Apr 07 20:41:02 2015
# Frame Rate: 120.000 fps
#------------------------------------------------------
:FULLY-SPECIFIED
:DEGREES
967
root 3.939284 34.049483 -3.357571 8.056219 -11.072378 -47.282202
Spine 4.404441 21.678887 34.533237
Head 2.652627 -11.109773 13.960449
LeftShoulder -18.973126 18.487951 37.789157
LeftArm 93.365185 -73.448951 -60.604665
LeftForeArm 19.578519 -0.000000 29.162994
LeftHand 11.633102 -0.000000 20.614524
LeftHandThumb1 -26.253704 0.000000 33.147579
RightShoulder -6.521380 36.381204 -30.353875
RightArm 57.534933 75.986213 93.209825
RightForeArm 42.767070 -0.000000 59.503232
RightHand 1.476603 -0.000000 28.744455
RightHandThumb1 -24.326973 -0.000000 -32.862282
LeftUpLeg -8.988832 3.556075 43.871082
LeftLeg 26.299151 -0.000000 -0.000000
LeftFoot -23.712964 22.750009 -22.964351
LeftToeBase -2.951994 -0.000000 0.000000
RightUpLeg -137.123926 -51.895036 24.748360
RightLeg -11.248898 -0.000000 0.000000
RightFoot 36.754761 -22.102055 16.927069
RightToeBase 23.287492 -0.000000 -0.000000
968
root 3.906531 34.053999 -3.392539 8.206516 -11.105255 -47.421821
Spine 4.333456 21.929575 34.512912
Head 2.475056 -11.077084 14.258181
LeftShoulder -19.000051 18.424205 37.754951
LeftArm 92.382573 -73.617540 -59.608615
LeftForeArm 19.677963 -0.000000 29.117808
LeftHand 11.632333 0.000000 20.880704
LeftHandThumb1 -26.253704 0.000000 33.147579
RightShoulder -6.569031 36.313703 -30.313816
RightArm 57.227203 75.828767 92.984400
RightForeArm 42.464448 -0.000000 59.554341
RightHand 1.452636 -0.000000 28.677867
RightHandThumb1 -24.326973 -0.000000 -32.862282
LeftUpLeg -9.001917 3.768003 44.083390
LeftLeg 26.159492 -0.000000 -0.000000
LeftFoot -23.682354 22.716710 -22.900351
LeftToeBase -2.903757 -0.000000 0.000000
RightUpLeg -136.904713 -51.889280 24.372233
RightLeg -11.046031 -0.000000 0.000000
RightFoot 36.806921 -21.956642 17.138665
RightToeBase 23.354268 -0.000000 -0.000000
969
root 3.871664 34.061784 -3.420409 8.403246 -11.109071 -47.578087
Spine 4.161620 22.158540 34.474811
Head 2.340731 -11.064932 14.562946
LeftShoulder -19.068246 18.431891 37.699984
LeftArm 92.159880 -73.723365 -59.363132
LeftForeArm 19.872301 -0.000000 29.080544
LeftHand 11.686274 -0.000000 20.815443
LeftHandThumb1 -26.253704 0.000000 33.147579
RightShoulder -6.603433 36.338460 -30.263739
RightArm 56.556425 75.657212 92.347417
RightForeArm 42.160251 0.000000 59.654050
RightHand 1.456158 -0.000000 28.607871
RightHandThumb1 -24.326973 -0.000000 -32.862282
LeftUpLeg -9.004910 4.105510 44.325943
LeftLeg 25.927690 -0.000000 -0.000000
LeftFoot -23.611016 22.619358 -22.771279
LeftToeBase -3.035125 -0.000000 0.000000
RightUpLeg -136.882831 -51.847900 24.210810
RightLeg -10.938299 -0.000000 0.000000
RightFoot 36.874392 -21.895897 17.448557
RightToeBase 22.691114 -0.000000 -0.000000
970
root 3.835987 34.071277 -3.442929 8.596025 -11.058256 -47.726346
Spine 3.946434 22.293830 34.431581
Head 2.227456 -11.027016 14.791447
LeftShoulder -19.133739 18.440331 37.645768
LeftArm 92.199280 -73.808315 -59.450553
LeftForeArm 19.985991 -0.000000 29.101690
LeftHand 11.652771 -0.000000 21.127502
LeftHandThumb1 -26.253704 0.000000 33.147579
RightShoulder -6.593306 36.486298 -30.228342
RightArm 55.772496 75.536100 91.564882
RightForeArm 41.818871 0.000000 59.807613
RightHand 1.377477 -0.000000 28.759255
RightHandThumb1 -24.326973 -0.000000 -32.862282
LeftUpLeg -9.050589 4.404482 44.557360
LeftLeg 25.712631 -0.000000 -0.000000
LeftFoot -23.466620 22.541404 -22.601205
LeftToeBase -3.221759 -0.000000 0.000000
RightUpLeg -136.981518 -51.824086 24.186523
RightLeg -10.953017 -0.000000 0.000000
RightFoot 36.802708 -21.745502 17.504830
RightToeBase 23.482525 -0.000000 -0.000000
971
root 3.798325 34.083609 -3.458787 8.734637 -10.936906 -47.860542
Spine 3.744935 22.302820 34.397104
Head 2.110281 -10.985398 14.943153
LeftShoulder -19.210397 18.463983 37.584350
LeftArm 92.770093 -73.883644 -60.164997
LeftForeArm 19.932799 -0.000000 29.214394
LeftHand 11.635810 0.000000 21.142131
LeftHandThumb1 -26.253704 0.000000 33.147579
RightShoulder -6.578082 36.667337 -30.227939
RightArm 55.043961 75.406741 90.822953
RightForeArm 41.694784 -0.000000 60.019698
RightHand 1.401121 0.000000 28.774570
RightHandThumb1 -24.326973 -0.000000 -32.862282
LeftUpLeg -9.099256 4.544743 44.774424
LeftLeg 25.461446 -0.000000 -0.000000
LeftFoot -23.237775 22.625859 -22.321289
LeftToeBase -3.340152 -0.000000 0.000000
RightUpLeg -137.130110 -51.885984 24.240797
RightLeg -11.054619 -0.000000 0.000000
RightFoot 36.783135 -21.516929 17.427863
RightToeBase 23.206724 -0.000000 -0.000000
972
root 3.763977 34.097691 -3.470250 8.811909 -10.762757 -47.951936
Spine 3.577023 22.234975 34.354676
Head 1.984171 -10.961174 15.026144
LeftShoulder -19.288789 18.429196 37.539135
LeftArm 93.531138 -73.887250 -61.147886
LeftForeArm 19.893038 -0.000000 29.395946
LeftHand 11.630859 -0.000000 21.023237
LeftHandThumb1 -26.253704 0.000000 33.147579
RightShoulder -6.575290 36.840932 -30.274969
RightArm 54.682130 75.339001 90.430789
RightForeArm 41.476504 -0.000000 60.289277
RightHand 1.320223 -0.000000 28.859705
RightHandThumb1 -24.326973 -0.000000 -32.862282
LeftUpLeg -9.176791 4.501006 44.925463
LeftLeg 25.220767 -0.000000 -0.000000
LeftFoot -22.873221 23.034881 -21.823910
LeftToeBase -3.625804 -0.000000 0.000000
RightUpLeg -137.314835 -51.993392 24.352097
RightLeg -11.309186 -0.000000 0.000000
RightFoot 36.777154 -21.492643 17.400832
RightToeBase 23.326724 -0.000000 -0.000000
